 <svg xmlns="http://www.w3.org/2000/svg" viewBox="0 0 100 100" class="feature__icon details--backend"><path d="M80.644 87.982l16.592-41.483c.054-.128.088-.26.108-.394l.011-.116.002-.26-.014-.137-.063-.262-.031-.103c-.047-.118-.106-.229-.178-.335l-.01-.018-29.062-41.516-.013-.04.014-.003v.685h-.037c-.403-1-1.094-1.124-1.752-.976l-.007-.012-.01-.012h-.024l-.007-.151-45.668 12.378-.071-.011-.253.083-.152.085-.147.099-.124.113-.136.152-.085.117-.12.223-.036.066-16.46 41.51.089.156v.5840000000000001l.012.223-.012.006v.024000000000000004c0 .191-.046.377.06.545l-.03.004-.03.004v.002l-.045.004.068.133 29.049 37.359.002.01.002.008.021.021.078.078.082.082.086.088.084.053.123.076.016.01.269.123.125.043.062.021c.123.027.249.043.375.043l.304-.027 45.669-8.303.163-.037.042.003h.004l.06-.035.12-.052.064-.03.033-.017.037-.028c.14-.078.269-.174.38-.285l.038-.048c.109-.119.201-.252.271-.398l.021-.029.011-.026.005-.01.025-.06zm-3.033-3.521l-28.806-18.008 32.407-25.202-3.601 43.21zm-30.794-20.752l-10.954-40.167 43.818 14.608-32.864 25.559zm37.851-23.167l8.926 5.952-11.902 29.75 2.976-35.702zm4.46-1.096l-4.598-3.066-6.129-12.257 10.727 15.323zm-9.252-4.801l-42.069-14.023 28.047-14.023 14.022 28.046zm-46.608-15.538l-6.485-2.162 23.781-6.487-17.296 8.649zm-11.348-.212l8.67 2.891-20.233 26.012 11.563-28.903zm10.732 5.754l10.845 39.757-36.146-7.228 25.301-32.529zm10.82 43.208l-10.503 24.506-24.507-31.508 35.01 7.002zm3.159 1.233l27.826 17.393-38.263 6.959 10.437-24.352z"/></svg>