<svg xmlns="http://www.w3.org/2000/svg" viewBox="0 0 100 100" class="feature__icon details--frontend"><path d="M17.011 11.013l-1.38.971.001 62.999 20.999 25.001 40.999-27v-73l-60.619 11.029zm58.158 59.59l-37.799-18.429v-.672l37.799-47.01v66.111zm-57.761-57.632l-.059.01-.009-.048.068.038zm.684.643l.088.047v-.261l17.19 9.552v27.851l-17.19 21.379-.088-58.568zm19.278 9.349l35.041-18.231-35.041 43.58v-25.349zm32.569-19.201l-33.55 17.46-16.19-8.74 49.74-8.72zm-53.109 8.887l-.023.043-.185-.099.038-.04.17.096zm18.54 41.344v41.398l-16.901-20.388 16.901-21.01zm2 42.328v-41.919l36.771 17.931-36.771 23.988z"/></svg>